<?xml version="1.0" encoding="utf-8"?>
<!-- Generator: Adobe Illustrator 21.0.2, SVG Export Plug-In . SVG Version: 6.00 Build 0)  -->
<svg version="1.1" id="Capa_1" xmlns="http://www.w3.org/2000/svg" xmlns:xlink="http://www.w3.org/1999/xlink" x="0px" y="0px"
	 viewBox="0 0 174 308.1" style="enable-background:new 0 0 174 308.1;" xml:space="preserve">
<style type="text/css">
	.st0{fill:#4D4D4D;}
	.st1{fill:#4772B2;}
	.st2{fill:#FFFFFF;}
</style>
<g>
	<polygon class="st0" points="50.4,62.7 68.2,62.7 68.2,35.8 65.8,39.8 	"/>
	<path class="st0" d="M93.7,34.9c-3.5,0-6.2,1.4-8.1,4.2c-1.9,2.8-2.8,6.8-2.8,11.9v7.5c0,5,1,9,2.9,11.8c1.9,2.8,4.6,4.3,8.1,4.3
		c3.5,0,6.1-1.4,8-4.3c1.9-2.8,2.8-6.8,2.8-12V51c0-5.1-0.9-9-2.8-11.8C99.9,36.3,97.2,34.9,93.7,34.9z"/>
	<polygon class="st0" points="114.5,62.7 132.3,62.7 132.3,35.8 129.9,39.8 	"/>
	<path class="st0" d="M151.7,37.5c0-16.6-13.4-30-30-30c-3.8,0-7.3,0.7-10.7,2C105.6,3.6,97.9,0,89.2,0C77.7,0,67.6,6.6,62.6,16.2
		c-1.1-0.1-2.2-0.2-3.4-0.2c-16.6,0-30,13.4-30,30c0,10.2,5.1,19.2,12.9,24.6c-0.3,1.6-0.4,3.2-0.4,4.9c0,16.6,13.4,30,30,30
		c5.9,0,11.4-1.7,16-4.6v97.6h12v-95c3.9,1.9,8.3,3,13,3c16.6,0,30-13.4,30-30c0-4.4-0.9-8.5-2.6-12.2h-6.3v11.4h-1.5V64.3h-20.2
		v-0.9L132,34h1.9v28.7h5.5c-0.1-0.2-0.2-0.5-0.4-0.7C146.7,56.6,151.7,47.6,151.7,37.5z M76.9,64.3h-7.2v11.4h-1.5V64.3H48v-0.9
		L67.9,34h1.9v28.7h7.2V64.3z M106.2,58.6c0,5.6-1.1,9.9-3.3,13s-5.2,4.6-9.2,4.6c-3.9,0-7-1.5-9.2-4.6c-2.2-3.1-3.3-7.4-3.3-13V51
		c0-5.5,1.1-9.8,3.3-12.9c2.2-3.1,5.2-4.6,9.2-4.6c3.9,0,7,1.5,9.2,4.6c2.2,3.1,3.3,7.5,3.3,13.1V58.6z"/>
</g>
<g>
	<path class="st1" d="M22.4,298.3h-7.8l-1.8,4.8h-1.5l6.5-17.1h1.4l6.5,17.1h-1.5L22.4,298.3z M15.1,297.1h6.9l-3.4-9.3L15.1,297.1z
		"/>
	<path class="st1" d="M29.4,303.1H28v-18h1.4V303.1z"/>
	<path class="st1" d="M32.7,296.6c0-2,0.4-3.6,1.3-4.7c0.9-1.2,2.1-1.7,3.6-1.7c1.7,0,3,0.7,3.9,2.1l0.1-1.8h1.3v12.4
		c0,1.6-0.5,2.9-1.4,3.9s-2.2,1.4-3.7,1.4c-0.9,0-1.7-0.2-2.5-0.6c-0.8-0.4-1.4-0.9-1.9-1.6l0.8-0.8c1,1.2,2.2,1.8,3.5,1.8
		c1.2,0,2.1-0.3,2.7-1c0.7-0.7,1-1.7,1-2.9v-1.6c-0.9,1.3-2.2,1.9-3.9,1.9c-1.5,0-2.7-0.6-3.5-1.8c-0.9-1.2-1.3-2.8-1.3-4.8V296.6z
		 M34.1,296.9c0,1.6,0.3,2.9,1,3.8s1.6,1.4,2.7,1.4c1.7,0,3-0.8,3.7-2.3v-5.9c-0.3-0.8-0.8-1.4-1.4-1.9c-0.6-0.4-1.4-0.6-2.2-0.6
		c-1.2,0-2.1,0.5-2.8,1.4C34.4,293.7,34.1,295,34.1,296.9z"/>
	<path class="st1" d="M45.8,296.5c0-1.2,0.2-2.3,0.7-3.3s1.1-1.7,2-2.3c0.9-0.5,1.8-0.8,2.9-0.8c1.7,0,3.1,0.6,4.1,1.8
		c1,1.2,1.6,2.8,1.6,4.7v0.3c0,1.2-0.2,2.3-0.7,3.3s-1.1,1.7-2,2.3c-0.9,0.5-1.8,0.8-2.9,0.8c-1.7,0-3.1-0.6-4.1-1.8
		c-1.1-1.2-1.6-2.8-1.6-4.7V296.5z M47.2,296.9c0,1.5,0.4,2.8,1.2,3.7c0.8,1,1.8,1.5,3.1,1.5c1.3,0,2.3-0.5,3.1-1.5
		c0.8-1,1.2-2.3,1.2-3.9v-0.3c0-1-0.2-1.9-0.5-2.7c-0.4-0.8-0.9-1.4-1.5-1.9c-0.6-0.4-1.4-0.7-2.2-0.7c-1.3,0-2.3,0.5-3.1,1.5
		c-0.8,1-1.2,2.3-1.2,3.9V296.9z"/>
	<path class="st1" d="M67.2,290.4l0,2.1c0.5-0.8,1.1-1.3,1.8-1.7c0.7-0.4,1.5-0.6,2.3-0.6c2,0,3.3,0.8,3.8,2.5
		c0.5-0.8,1.1-1.4,1.8-1.8c0.8-0.4,1.6-0.6,2.5-0.6c2.7,0,4.1,1.5,4.2,4.5v8.5h-1.4v-8.4c0-1.1-0.3-2-0.7-2.5
		c-0.5-0.5-1.3-0.8-2.4-0.8c-1,0-1.9,0.3-2.6,1s-1.1,1.4-1.2,2.3v8.4H74v-8.5c0-1.1-0.3-1.9-0.8-2.4c-0.5-0.5-1.3-0.8-2.3-0.8
		c-0.9,0-1.6,0.3-2.3,0.8c-0.6,0.5-1.1,1.3-1.4,2.2v8.7h-1.4v-12.7H67.2z"/>
	<path class="st1" d="M95.2,303.1c-0.1-0.4-0.2-1-0.3-1.8c-0.5,0.6-1.1,1.1-1.9,1.5c-0.8,0.3-1.6,0.5-2.4,0.5c-1.2,0-2.2-0.3-3-1
		c-0.8-0.7-1.1-1.5-1.1-2.6c0-1.2,0.5-2.2,1.5-2.9c1-0.7,2.5-1.1,4.3-1.1h2.5v-1.4c0-0.9-0.3-1.6-0.8-2.1c-0.6-0.5-1.4-0.8-2.4-0.8
		c-1,0-1.8,0.3-2.4,0.8c-0.6,0.5-1,1.1-1,1.8l-1.4,0c0-1,0.5-1.9,1.4-2.6s2.1-1.1,3.5-1.1c1.4,0,2.5,0.4,3.4,1.1s1.2,1.7,1.3,3v6
		c0,1.2,0.1,2.1,0.4,2.8v0.1H95.2z M90.8,302.1c0.9,0,1.8-0.2,2.5-0.7c0.7-0.5,1.3-1.1,1.6-1.8v-2.8h-2.5c-1.4,0-2.5,0.3-3.3,0.8
		c-0.8,0.5-1.2,1.2-1.2,2.1c0,0.7,0.3,1.3,0.8,1.8C89.3,301.8,90,302.1,90.8,302.1z"/>
	<path class="st1" d="M101.7,303.1h-1.4v-18h1.4V303.1z"/>
	<path class="st1" d="M105.4,286.7c0-0.3,0.1-0.5,0.3-0.7c0.2-0.2,0.4-0.3,0.7-0.3c0.3,0,0.5,0.1,0.7,0.3c0.2,0.2,0.3,0.4,0.3,0.7
		s-0.1,0.5-0.3,0.7c-0.2,0.2-0.4,0.3-0.7,0.3c-0.3,0-0.5-0.1-0.7-0.3C105.5,287.2,105.4,287,105.4,286.7z M107,303.1h-1.4v-12.7h1.4
		V303.1z"/>
	<path class="st1" d="M110.1,296.5c0-1.2,0.2-2.3,0.7-3.3s1.1-1.7,2-2.3c0.9-0.5,1.8-0.8,2.9-0.8c1.7,0,3.1,0.6,4.1,1.8
		c1,1.2,1.6,2.8,1.6,4.7v0.3c0,1.2-0.2,2.3-0.7,3.3c-0.5,1-1.1,1.7-2,2.3c-0.9,0.5-1.8,0.8-2.9,0.8c-1.7,0-3.1-0.6-4.1-1.8
		c-1.1-1.2-1.6-2.8-1.6-4.7V296.5z M111.5,296.9c0,1.5,0.4,2.8,1.2,3.7c0.8,1,1.8,1.5,3.1,1.5c1.3,0,2.3-0.5,3.1-1.5
		c0.8-1,1.2-2.3,1.2-3.9v-0.3c0-1-0.2-1.9-0.5-2.7c-0.4-0.8-0.9-1.4-1.5-1.9c-0.7-0.4-1.4-0.7-2.2-0.7c-1.3,0-2.3,0.5-3.1,1.5
		c-0.8,1-1.2,2.3-1.2,3.9V296.9z M117.1,285.2h1.7l-2.7,3.3l-1.2,0L117.1,285.2z"/>
	<path class="st1" d="M137.8,299.8c0-0.7-0.3-1.3-0.8-1.7c-0.6-0.4-1.4-0.8-2.5-1c-1.1-0.2-2-0.5-2.6-0.8c-0.6-0.3-1.1-0.7-1.4-1.1
		c-0.3-0.4-0.5-1-0.5-1.6c0-1,0.4-1.8,1.3-2.5c0.8-0.7,1.9-1,3.2-1c1.4,0,2.6,0.3,3.4,1.1s1.3,1.6,1.3,2.7h-1.4
		c0-0.7-0.3-1.4-0.9-1.9c-0.6-0.5-1.4-0.7-2.4-0.7c-0.9,0-1.7,0.2-2.2,0.6c-0.6,0.4-0.8,0.9-0.8,1.6c0,0.6,0.2,1.1,0.7,1.5
		c0.5,0.3,1.3,0.7,2.5,1c1.2,0.3,2.2,0.6,2.8,0.9c0.6,0.3,1.1,0.7,1.4,1.2c0.3,0.5,0.4,1,0.4,1.7c0,1.1-0.4,1.9-1.3,2.6
		c-0.9,0.6-2,1-3.4,1c-1.5,0-2.7-0.4-3.6-1.1c-0.9-0.7-1.4-1.6-1.4-2.7h1.4c0.1,0.8,0.4,1.5,1,1.9c0.6,0.5,1.5,0.7,2.5,0.7
		c1,0,1.8-0.2,2.4-0.6C137.5,301,137.8,300.5,137.8,299.8z"/>
	<path class="st1" d="M150.4,303.1c-0.1-0.4-0.2-1-0.3-1.8c-0.5,0.6-1.1,1.1-1.9,1.5c-0.8,0.3-1.6,0.5-2.4,0.5c-1.2,0-2.2-0.3-3-1
		c-0.8-0.7-1.1-1.5-1.1-2.6c0-1.2,0.5-2.2,1.5-2.9c1-0.7,2.5-1.1,4.3-1.1h2.5v-1.4c0-0.9-0.3-1.6-0.8-2.1c-0.6-0.5-1.4-0.8-2.4-0.8
		c-1,0-1.8,0.3-2.4,0.8c-0.6,0.5-1,1.1-1,1.8l-1.4,0c0-1,0.5-1.9,1.4-2.6s2.1-1.1,3.5-1.1c1.4,0,2.5,0.4,3.4,1.1
		c0.8,0.7,1.2,1.7,1.3,3v6c0,1.2,0.1,2.1,0.4,2.8v0.1H150.4z M146,302.1c0.9,0,1.8-0.2,2.5-0.7c0.7-0.5,1.3-1.1,1.6-1.8v-2.8h-2.5
		c-1.4,0-2.5,0.3-3.3,0.8c-0.8,0.5-1.2,1.2-1.2,2.1c0,0.7,0.3,1.3,0.8,1.8C144.4,301.8,145.1,302.1,146,302.1z"/>
	<path class="st1" d="M156.8,303.1h-1.4v-18h1.4V303.1z"/>
	<path class="st1" d="M160.5,302.2c0-0.3,0.1-0.5,0.3-0.7c0.2-0.2,0.4-0.3,0.7-0.3c0.3,0,0.6,0.1,0.7,0.3c0.2,0.2,0.3,0.4,0.3,0.7
		c0,0.3-0.1,0.5-0.3,0.7c-0.2,0.2-0.4,0.3-0.7,0.3c-0.3,0-0.6-0.1-0.7-0.3C160.6,302.7,160.5,302.5,160.5,302.2z"/>
	<path class="st1" d="M166.2,302.2c0-0.3,0.1-0.5,0.3-0.7c0.2-0.2,0.4-0.3,0.7-0.3c0.3,0,0.6,0.1,0.7,0.3c0.2,0.2,0.3,0.4,0.3,0.7
		c0,0.3-0.1,0.5-0.3,0.7c-0.2,0.2-0.4,0.3-0.7,0.3c-0.3,0-0.6-0.1-0.7-0.3C166.3,302.7,166.2,302.5,166.2,302.2z"/>
	<path class="st1" d="M172,302.2c0-0.3,0.1-0.5,0.3-0.7c0.2-0.2,0.4-0.3,0.7-0.3c0.3,0,0.6,0.1,0.7,0.3c0.2,0.2,0.3,0.4,0.3,0.7
		c0,0.3-0.1,0.5-0.3,0.7c-0.2,0.2-0.4,0.3-0.7,0.3c-0.3,0-0.6-0.1-0.7-0.3C172.1,302.7,172,302.5,172,302.2z"/>
</g>
<path class="st2" d="M76.9,149.9c2.6,0.5,2.9-1.2,3.3-3.4l1.5-7.7c0.4-2.1,0.8-3.8-1.8-4.3c-1.7-0.3-3.3,0.1-4.4,1L9.3,122.7
	c-3.5-0.7-6.9,1.1-7.4,3.9l-0.3,1.5C1,131,3.4,133.9,7,134.5l66.2,12.8C73.8,148.5,75.2,149.5,76.9,149.9z"/>
<path class="st1" d="M77.7,151.5c-0.4,0-0.7,0-1.1-0.1l0,0c-1.8-0.3-3.4-1.3-4.3-2.7L6.7,136c-4.4-0.8-7.3-4.5-6.6-8.2l0.3-1.5
	c0.7-3.7,4.8-6,9.2-5.1l65.6,12.6c1.4-0.9,3.2-1.2,5-0.9c1.8,0.3,2.8,1.2,3.2,2.6c0.3,1.1,0.1,2.2-0.2,3.3l-1.5,8
	c-0.2,1.2-0.4,2.3-1.1,3.2C79.9,151,78.9,151.5,77.7,151.5z M77.1,148.4c0.5,0.1,0.9,0.1,1-0.1c0.2-0.3,0.4-1.2,0.6-1.9l1.5-8
	c0.2-0.8,0.3-1.6,0.2-2c0-0.2-0.3-0.3-0.9-0.4c-1.2-0.2-2.4,0-3.1,0.7l-0.5,0.5L9,124.2c-2.7-0.5-5.3,0.7-5.7,2.8L3,128.4
	c-0.4,2,1.5,4.1,4.2,4.7L74.2,146l0.3,0.6C75,147.5,76,148.2,77.1,148.4L77.1,148.4z"/>
<path class="st2" d="M137,246.2L103.8,164h0.7c1,0,1.8-0.8,1.8-1.8v-0.5c0-1-0.8-4.8-1.8-4.8H83c-1,0-1.8,3.8-1.8,4.8v0.5
	c0,1,0.8,1.8,1.8,1.8h0.4L50,246.2c-1.3,3.2,1.1,6.8,4.6,6.8h77.9C135.9,253,138.3,249.5,137,246.2z"/>
<path class="st1" d="M132.4,254.5H54.6c-2.1,0-4.1-1.1-5.3-2.8s-1.4-4-0.6-6l32.8-80.6c-1-0.6-1.6-1.6-1.6-2.8v-0.5
	c0-0.1,0.4-6.3,3.3-6.3h21.5c2.9,0,3.3,6.2,3.3,6.3v0.5c0,1.3-0.8,2.4-1.9,2.9l32.5,80.5c0.8,2,0.6,4.2-0.6,6
	S134.6,254.5,132.4,254.5z M83.5,158.5c-0.4,0.8-0.8,2.6-0.8,3.3v0.5c0,0.1,0.1,0.3,0.3,0.3h2.6l-34.3,84.3
	c-0.4,1.1-0.3,2.2,0.3,3.2s1.7,1.5,2.9,1.5h77.9c1.2,0,2.2-0.6,2.8-1.5s0.8-2.1,0.3-3.2l-34-84.3h2.9c0.1,0,0.3-0.1,0.3-0.3v-0.5
	c0-0.6-0.4-2.5-0.8-3.3H83.5z"/>
<g>
	<line class="st2" x1="74.8" y1="185.3" x2="88" y2="185.3"/>
	<rect x="74.8" y="183.8" class="st1" width="13.2" height="3"/>
</g>
<g>
	<line class="st2" x1="70.8" y1="197.3" x2="84" y2="197.3"/>
	<rect x="70.8" y="195.8" class="st1" width="13.2" height="3"/>
</g>
<g>
	<line class="st2" x1="65.8" y1="209.3" x2="79" y2="209.3"/>
	<rect x="65.8" y="207.8" class="st1" width="13.2" height="3"/>
</g>
<g>
	<line class="st2" x1="61.8" y1="220.3" x2="75" y2="220.3"/>
	<rect x="61.8" y="218.8" class="st1" width="13.2" height="3"/>
</g>
<g>
	<line class="st2" x1="56.8" y1="232.3" x2="70" y2="232.3"/>
	<rect x="56.8" y="230.8" class="st1" width="13.2" height="3"/>
</g>
</svg>
