<?xml version="1.0" encoding="utf-8"?>
<!-- Generator: Adobe Illustrator 21.0.2, SVG Export Plug-In . SVG Version: 6.00 Build 0)  -->
<svg version="1.1" id="Capa_1" xmlns="http://www.w3.org/2000/svg" xmlns:xlink="http://www.w3.org/1999/xlink" x="0px" y="0px"
	 viewBox="0 0 500 500" style="enable-background:new 0 0 500 500;" xml:space="preserve">
<style type="text/css">
	.st0{fill:#FFFFFF;}
</style>
<g>
	<path class="st0" d="M270.9,259.8l166.1-97v-19.1c0-10.3-8.4-18.7-18.7-18.7H81.7c-10.3,0-18.7,8.4-18.7,18.7v19.1l166.1,97
		C242,267.3,258,267.3,270.9,259.8z"/>
	<path class="st0" d="M284,282.2c-10.5,6.1-22.2,9.2-34,9.2s-23.5-3.1-34-9.2L63,192.8v164.5c0,10.3,8.4,18.7,18.7,18.7h336.7
		c10.3,0,18.7-8.4,18.7-18.7V192.8L284,282.2z"/>
</g>
</svg>
