<?xml version="1.0" encoding="utf-8"?>
<!-- Generator: Adobe Illustrator 21.0.2, SVG Export Plug-In . SVG Version: 6.00 Build 0)  -->
<svg version="1.1" id="Capa_1" xmlns="http://www.w3.org/2000/svg" xmlns:xlink="http://www.w3.org/1999/xlink" x="0px" y="0px"
	 viewBox="0 0 408.1 151.9" style="enable-background:new 0 0 408.1 151.9;" xml:space="preserve">
<style type="text/css">
	.st0{fill:#FFFFFF;}
</style>
<g>
	<path class="st0" d="M0,28h30.1V120c0,5.9,2.8,7.7,4.9,7.7c1,0,1.8,0,3.2-0.4l3.5,22.1c-3.2,1.4-8,2.4-14.7,2.4
		c-20.3,0-27-13.3-27-32.9V28z"/>
	<path class="st0" d="M47.6,36.4c0-8.8,7-15.1,16.8-15.1s16.8,6.3,16.8,15.1c0,8.8-7,15-16.8,15S47.6,45.1,47.6,36.4z M49.3,62.3
		h30.1v87.5H49.3V62.3z"/>
	<path class="st0" d="M96.9,62.3h24.5l2.1,10.7h0.7c7-6.8,14.4-12.8,26.2-12.8c11.9,0,19.4,4.9,24.1,14c7.2-7.3,15.1-14,27-14
		c19.3,0,27.6,14,27.6,35.7v53.9h-30.1V99.7c0-11.2-2.8-14-8.8-14c-3.5,0-7.7,2.1-12.3,6.7v57.4H148V99.7c0-11.2-2.8-14-8.8-14
		c-3.5,0-7.7,2.1-12.3,6.7v57.4H96.9V62.3z"/>
	<path class="st0" d="M246,28h30.1v28.4l-0.7,12.6c6.1-5.6,13.8-8.7,21.5-8.7c20.6,0,34.1,17.5,34.1,44.3
		c0,30.3-17.9,47.4-36.4,47.4c-7.7,0-15.4-3.9-22-11.6h-0.7l-2.5,9.4H246L246,28L246,28z M287.3,127.4c7,0,13-5.6,13-22.4
		c0-14.3-4.2-20.3-12.3-20.3c-4.6,0-8.1,1.8-11.9,6.3v32.2C279.6,126.3,283.5,127.4,287.3,127.4z"/>
	<path class="st0" d="M350,121.1c8,5.9,15.2,8.8,21.4,8.8c6.3,0,8.8-1.8,8.8-5.3c0-4.6-8-6.7-16.8-10.2c-10.1-4-22.1-11.6-22.1-25.9
		c0-17.2,14-28.4,34.6-28.4c14.4,0,24.5,5.8,32.2,11.6l-13.3,17.8c-6.3-4.6-12.4-7.3-17.9-7.3c-5.1,0-7.7,1.4-7.7,4.9
		c0,4.6,7.7,6.3,16.5,9.4c10.5,3.9,22.4,10.5,22.4,26.3c0,16.5-13,29.1-37.5,29.1c-11.2,0-24.9-4.9-34-12.3L350,121.1z"/>
</g>
<ellipse transform="matrix(0.985 -0.1724 0.1724 0.985 -2.6739 8.8365)" class="st0" cx="49.5" cy="19.8" rx="3.6" ry="15.7"/>
<ellipse transform="matrix(0.9968 -8.050733e-02 8.050733e-02 0.9968 -1.1537 4.8007)" class="st0" cx="59" cy="16.7" rx="3.6" ry="15.8"/>
<ellipse transform="matrix(7.577088e-02 -0.9971 0.9971 7.577088e-02 48.1148 83.324)" class="st0" cx="69" cy="15.7" rx="15.8" ry="3.6"/>
<ellipse transform="matrix(0.2432 -0.97 0.97 0.2432 40.1333 91.0622)" class="st0" cx="78.4" cy="19.8" rx="15.8" ry="3.6"/>
<ellipse transform="matrix(0.7071 -0.7071 0.7071 0.7071 1.567 67.9881)" class="st0" cx="82.9" cy="32.1" rx="11.4" ry="4.9"/>
</svg>
