<?xml version="1.0" encoding="utf-8"?>
<!-- Generator: Adobe Illustrator 21.0.2, SVG Export Plug-In . SVG Version: 6.00 Build 0)  -->
<svg version="1.1" id="Capa_1" xmlns="http://www.w3.org/2000/svg" xmlns:xlink="http://www.w3.org/1999/xlink" x="0px" y="0px"
	 viewBox="0 0 408.1 193.6" style="enable-background:new 0 0 408.1 193.6;" xml:space="preserve">
<style type="text/css">
	.st0{fill:#FFFFFF;}
</style>
<g>
	<path class="st0" d="M0,28.1h30.1v92c0,5.9,2.8,7.7,4.9,7.7c1.1,0,1.8,0,3.2-0.4l3.5,22.1c-3.2,1.4-8.1,2.4-14.7,2.4
		c-20.3,0-27-13.3-27-32.9V28.1z"/>
	<path class="st0" d="M47.6,36.5c0-8.8,7-15.1,16.8-15.1s16.8,6.3,16.8,15.1s-7,15-16.8,15S47.6,45.2,47.6,36.5z M49.3,62.4h30.1
		v87.5H49.3V62.4z"/>
	<path class="st0" d="M96.9,62.4h24.5l2.1,10.7h0.7c7-6.8,14.4-12.8,26.2-12.8c11.9,0,19.4,4.9,24.1,14c7.2-7.3,15.1-14,27-14
		c19.3,0,27.6,14,27.6,35.7v53.9H199V99.8c0-11.2-2.8-14-8.8-14c-3.5,0-7.7,2.1-12.3,6.7v57.4h-30.1V99.8c0-11.2-2.8-14-8.8-14
		c-3.5,0-7.7,2.1-12.3,6.7v57.4H96.6V62.4H96.9z"/>
	<path class="st0" d="M246,28.1h30.1v28.4l-0.7,12.6c6.1-5.6,13.8-8.7,21.5-8.7c20.7,0,34.1,17.5,34.1,44.3
		c0,30.3-17.9,47.4-36.4,47.4c-7.7,0-15.4-3.9-22-11.6h-0.7l-2.5,9.4h-23.5L246,28.1L246,28.1z M287.3,127.5c7,0,13-5.6,13-22.4
		c0-14.3-4.2-20.3-12.3-20.3c-4.6,0-8.1,1.8-11.9,6.3v32.2C279.6,126.4,283.5,127.5,287.3,127.5z"/>
	<path class="st0" d="M350,121.2c8,5.9,15.2,8.8,21.4,8.8c6.3,0,8.8-1.8,8.8-5.3c0-4.6-8-6.7-16.8-10.2c-10.1-4-22.1-11.6-22.1-25.9
		c0-17.2,14-28.4,34.6-28.4c14.4,0,24.5,5.8,32.2,11.6l-13.3,17.8c-6.3-4.6-12.4-7.3-17.9-7.3c-5.1,0-7.7,1.4-7.7,4.9
		c0,4.6,7.7,6.3,16.5,9.4c10.5,3.9,22.4,10.5,22.4,26.3c0,16.5-13,29.1-37.5,29.1c-11.2,0-24.9-4.9-34-12.3L350,121.2z"/>
</g>
<ellipse transform="matrix(0.985 -0.1724 0.1724 0.985 -2.6837 8.8295)" class="st0" cx="49.5" cy="19.9" rx="3.6" ry="15.7"/>
<ellipse transform="matrix(0.9968 -8.050364e-02 8.050364e-02 0.9968 -1.1585 4.7974)" class="st0" cx="58.9" cy="16.8" rx="3.6" ry="15.8"/>
<ellipse transform="matrix(7.577278e-02 -0.9971 0.9971 7.577278e-02 48.0345 83.3363)" class="st0" cx="69" cy="15.8" rx="15.8" ry="3.6"/>
<ellipse transform="matrix(0.2432 -0.97 0.97 0.2432 40.062 91.0625)" class="st0" cx="78.4" cy="19.9" rx="15.8" ry="3.6"/>
<ellipse transform="matrix(0.7071 -0.7071 0.7071 0.7071 1.4954 67.9764)" class="st0" cx="82.8" cy="32.2" rx="11.4" ry="4.9"/>
<g>
	<path class="st0" d="M9.3,171.5h2.8v12.8c0,5.2,2.2,6.9,5,6.9c2.9,0,5.2-1.7,5.2-6.9v-12.8h2.6v12.7c0,7-3.4,9.4-7.8,9.4
		s-7.8-2.4-7.8-9.4V171.5z"/>
	<path class="st0" d="M30.4,177.1h2.2l0.2,2.3H33c1.5-1.5,3.2-2.7,5.4-2.7c3.4,0,4.9,2.2,4.9,6.3v10.2h-2.7v-9.8c0-3-0.9-4.3-3-4.3
		c-1.7,0-2.8,0.9-4.4,2.5v11.6h-2.7V177.1z"/>
	<path class="st0" d="M57.6,183c0-2-0.7-4-3.3-4c-1.9,0-3.5,0.9-4.8,1.7l-1.1-1.9c1.5-1,3.7-2.1,6.3-2.1c3.9,0,5.6,2.6,5.6,6.6v9.9
		H58l-0.2-1.9h-0.1c-1.6,1.3-3.3,2.3-5.3,2.3c-2.7,0-4.7-1.7-4.7-4.6C47.7,185.5,50.7,183.8,57.6,183z M53.2,191.4
		c1.6,0,2.8-0.8,4.4-2.1v-4.5c-5.4,0.7-7.2,2-7.2,4C50.4,190.7,51.6,191.4,53.2,191.4z"/>
	<path class="st0" d="M71.6,172.1c0-1.1,0.8-1.8,1.9-1.8c1.1,0,1.9,0.7,1.9,1.8c0,1-0.8,1.8-1.9,1.8
		C72.4,173.8,71.6,173.1,71.6,172.1z M72.1,177.1h2.7v16.1h-2.7V177.1z"/>
	<path class="st0" d="M80.2,177.1h2.2l0.2,2.3h0.1c1.5-1.5,3.2-2.7,5.4-2.7c3.4,0,4.9,2.2,4.9,6.3v10.2h-2.7v-9.8c0-3-0.9-4.3-3-4.3
		c-1.7,0-2.8,0.9-4.4,2.5v11.6h-2.7V177.1z"/>
	<path class="st0" d="M97.8,172.1c0-1.1,0.8-1.8,1.9-1.8c1.1,0,1.9,0.7,1.9,1.8c0,1-0.8,1.8-1.9,1.8
		C98.6,173.8,97.8,173.1,97.8,172.1z M98.3,177.1h2.7v16.1h-2.7V177.1z"/>
	<path class="st0" d="M113,176.7c2.1,0,3.6,0.9,4.7,1.9l-1.4,1.8c-1-0.8-2-1.4-3.2-1.4c-2.9,0-5,2.5-5,6.2c0,3.7,2,6.2,5,6.2
		c1.5,0,2.8-0.8,3.8-1.6l1.2,1.8c-1.5,1.3-3.3,2.1-5.2,2.1c-4.3,0-7.5-3.1-7.5-8.4C105.2,179.8,108.8,176.7,113,176.7z"/>
	<path class="st0" d="M121,172.1c0-1.1,0.8-1.8,1.9-1.8c1.1,0,1.9,0.7,1.9,1.8c0,1-0.8,1.8-1.9,1.8C121.8,173.8,121,173.1,121,172.1
		z M121.5,177.1h2.7v16.1h-2.7V177.1z"/>
	<path class="st0" d="M138.7,183c0-2-0.7-4-3.3-4c-1.9,0-3.5,0.9-4.8,1.7l-1.1-1.9c1.5-1,3.7-2.1,6.3-2.1c3.9,0,5.6,2.6,5.6,6.6v9.9
		h-2.2l-0.2-1.9h-0.1c-1.6,1.3-3.3,2.3-5.3,2.3c-2.7,0-4.7-1.7-4.7-4.6C128.9,185.5,131.9,183.8,138.7,183z M134.3,191.4
		c1.6,0,2.8-0.8,4.4-2.1v-4.5c-5.4,0.7-7.2,2-7.2,4C131.5,190.7,132.8,191.4,134.3,191.4z"/>
	<path class="st0" d="M147,179.4h-2.4v-2l2.5-0.2l0.3-4.5h2.3v4.5h4.3v2.2h-4.3v8.9c0,2,0.6,3.1,2.5,3.1c0.6,0,1.3-0.2,1.8-0.4
		l0.5,2c-0.9,0.3-2,0.6-3,0.6c-3.4,0-4.6-2.2-4.6-5.4V179.4z"/>
	<path class="st0" d="M157.3,172.1c0-1.1,0.8-1.8,1.9-1.8c1.1,0,1.9,0.7,1.9,1.8c0,1-0.8,1.8-1.9,1.8
		C158.1,173.8,157.3,173.1,157.3,172.1z M157.8,177.1h2.7v16.1h-2.7V177.1z"/>
	<path class="st0" d="M163.6,177.1h2.8l3,9.1c0.5,1.6,1,3.2,1.5,4.7h0.1c0.5-1.5,1-3.1,1.5-4.7l3-9.1h2.7l-5.7,16.1h-3.2
		L163.6,177.1z"/>
	<path class="st0" d="M189.8,183c0-2-0.7-4-3.3-4c-1.9,0-3.5,0.9-4.8,1.7l-1.1-1.9c1.5-1,3.7-2.1,6.3-2.1c3.9,0,5.6,2.6,5.6,6.6v9.9
		h-2.2l-0.2-1.9h-0.1c-1.6,1.3-3.3,2.3-5.3,2.3c-2.7,0-4.7-1.7-4.7-4.6C179.9,185.5,182.9,183.8,189.8,183z M185.4,191.4
		c1.6,0,2.8-0.8,4.4-2.1v-4.5c-5.4,0.7-7.2,2-7.2,4C182.6,190.7,183.8,191.4,185.4,191.4z"/>
	<path class="st0" d="M210.1,176.7c1.9,0,3.1,0.7,4.5,1.9l-0.1-2.7v-6.2h2.7v23.5H215l-0.2-1.9h-0.1c-1.3,1.2-3,2.3-4.9,2.3
		c-4,0-6.6-3-6.6-8.4C203.1,180,206.4,176.7,210.1,176.7z M210.4,191.3c1.5,0,2.8-0.7,4.1-2.2v-8.4c-1.4-1.2-2.6-1.7-3.9-1.7
		c-2.6,0-4.6,2.5-4.6,6.2C205.9,189,207.6,191.3,210.4,191.3z"/>
	<path class="st0" d="M228.7,176.7c4.1,0,6.4,2.9,6.4,7.5c0,0.6,0,1.1-0.1,1.5h-10.8c0.2,3.5,2.3,5.7,5.4,5.7c1.5,0,2.8-0.5,4-1.3
		l1,1.8c-1.4,0.9-3.1,1.7-5.3,1.7c-4.3,0-7.7-3.1-7.7-8.4S225,176.7,228.7,176.7z M232.7,184c0-3.3-1.5-5.1-4-5.1
		c-2.2,0-4.3,1.9-4.6,5.1H232.7z"/>
	<path class="st0" d="M255.8,186.6h-7.9l-2.1,6.6H243l7.3-21.7h3.1l7.3,21.7h-2.9L255.8,186.6z M255.1,184.4l-1-3.3
		c-0.8-2.4-1.5-4.8-2.1-7.3h-0.1c-0.7,2.5-1.4,4.9-2.1,7.3l-1.1,3.3H255.1z"/>
	<path class="st0" d="M263.5,179.4h-2.4v-2l2.5-0.2l0.3-4.5h2.3v4.5h4.3v2.2h-4.3v8.9c0,2,0.6,3.1,2.5,3.1c0.6,0,1.3-0.2,1.8-0.4
		l0.5,2c-0.9,0.3-2,0.6-3,0.6c-3.4,0-4.6-2.2-4.6-5.4V179.4z"/>
	<path class="st0" d="M280.1,176.7c3.9,0,7.4,3.1,7.4,8.5c0,5.3-3.5,8.4-7.4,8.4s-7.4-3.1-7.4-8.4
		C272.7,179.8,276.2,176.7,280.1,176.7z M280.1,191.4c2.8,0,4.6-2.5,4.6-6.2c0-3.7-1.9-6.2-4.6-6.2c-2.7,0-4.6,2.5-4.6,6.2
		C275.5,188.9,277.4,191.4,280.1,191.4z"/>
	<path class="st0" d="M291.8,177.1h2.2l0.2,2.3h0.1c1.4-1.5,3.1-2.7,5-2.7c2.4,0,3.8,1.2,4.4,3.1c1.7-1.8,3.3-3.1,5.3-3.1
		c3.3,0,4.9,2.2,4.9,6.3v10.2h-2.7v-9.8c0-3-1-4.3-3-4.3c-1.3,0-2.5,0.8-4,2.5v11.6h-2.7v-9.8c0-3-1-4.3-3-4.3c-1.2,0-2.5,0.8-4,2.5
		v11.6h-2.7V177.1z"/>
	<path class="st0" d="M318.7,172.1c0-1.1,0.8-1.8,1.9-1.8c1.1,0,1.9,0.7,1.9,1.8c0,1-0.8,1.8-1.9,1.8
		C319.6,173.8,318.7,173.1,318.7,172.1z M319.2,177.1h2.7v16.1h-2.7V177.1z"/>
	<path class="st0" d="M333.9,176.7c2.1,0,3.6,0.9,4.7,1.9l-1.4,1.8c-1-0.8-2-1.4-3.2-1.4c-2.9,0-5,2.5-5,6.2c0,3.7,2,6.2,5,6.2
		c1.5,0,2.8-0.8,3.8-1.6l1.2,1.8c-1.5,1.3-3.3,2.1-5.2,2.1c-4.3,0-7.5-3.1-7.5-8.4C326.2,179.8,329.8,176.7,333.9,176.7z"/>
	<path class="st0" d="M349.3,171.5h2.8v19.3h9.5v2.3h-12.2V171.5z"/>
	<path class="st0" d="M374.1,183c0-2-0.7-4-3.3-4c-1.9,0-3.5,0.9-4.8,1.7l-1.1-1.9c1.5-1,3.7-2.1,6.3-2.1c3.9,0,5.6,2.6,5.6,6.6v9.9
		h-2.2l-0.2-1.9h-0.1c-1.6,1.3-3.3,2.3-5.3,2.3c-2.7,0-4.7-1.7-4.7-4.6C364.2,185.5,367.3,183.8,374.1,183z M369.7,191.4
		c1.6,0,2.8-0.8,4.4-2.1v-4.5c-5.4,0.7-7.2,2-7.2,4C366.9,190.7,368.1,191.4,369.7,191.4z"/>
	<path class="st0" d="M382,169.7h2.7v6.4l-0.1,2.9c1.5-1.3,3.2-2.2,5-2.2c4.2,0,6.4,3.2,6.4,8.2c0,5.5-3.3,8.7-6.9,8.7
		c-1.5,0-3.2-0.7-4.6-2h-0.1l-0.2,1.6H382V169.7z M388.6,191.3c2.6,0,4.6-2.4,4.6-6.4c0-3.5-1.2-5.9-4.2-5.9c-1.4,0-2.8,0.8-4.3,2.2
		v8.4C386.1,190.9,387.5,191.3,388.6,191.3z"/>
</g>
</svg>
