<?xml version="1.0" encoding="utf-8"?>
<!-- Generator: Adobe Illustrator 21.0.2, SVG Export Plug-In . SVG Version: 6.00 Build 0)  -->
<svg version="1.1" id="Capa_1" xmlns="http://www.w3.org/2000/svg" xmlns:xlink="http://www.w3.org/1999/xlink" x="0px" y="0px"
	 viewBox="0 0 1000 1000" style="enable-background:new 0 0 1000 1000;" xml:space="preserve">
<style type="text/css">
	.st0{fill:#606060;}
</style>
<g>
	<path class="st0" d="M631.7,534.8c-0.4,0.4-0.7,0.8-1.1,1.2c11.1-27.1,21.7-59.6,30.6-95.1c25.2-100.7,27.1-187,4.2-192.7
		c-22.9-5.8-62,71.2-87.3,171.9c-4.9,19.5-8.9,38.5-12,56.4c-8.1-4.7-16.8-8.7-25.8-12.3c4.4-24,8-50.8,10.1-79.4
		c7.9-103.5-4.9-188.9-28.5-190.7c-23.6-1.8-49.1,80.7-56.9,184.2c-1.9,24.7-2.6,48.3-2.2,70.1c-3.3-0.1-6.5-0.4-9.8-0.4
		c-6.4,0-12.7,0.3-19,0.8c-0.1-18.6-0.9-38.4-2.6-59c-8.4-103.5-34.2-185.8-57.8-183.9c-23.6,1.9-35.9,87.3-27.6,190.8
		c2.1,25.5,5.2,49.8,9.1,71.8c-10.3,4.8-20,10.5-29,16.8c-1.8-19.7-4.5-40.7-8.3-62.5c-17.8-101.6-51.1-180.7-74.4-176.6
		c-23.3,4.1-27.8,89.8-10,191.4c8.4,47.9,20.2,90.6,32.8,122.1c-8.5,20.7-13.2,43.4-13.2,67.9C253.2,731.1,336.4,806,453,806
		c101.6,0,177.9-56.1,195.8-139.8c21.1-10.9,43.9-27.5,65.3-49c53-53,77.4-114.4,54.7-137.1C746.1,457.3,684.7,481.8,631.7,534.8z"
		/>
</g>
</svg>
