<?xml version="1.0" encoding="utf-8"?>
<!-- Generator: Adobe Illustrator 21.0.2, SVG Export Plug-In . SVG Version: 6.00 Build 0)  -->
<svg version="1.1" id="Capa_1" xmlns="http://www.w3.org/2000/svg" xmlns:xlink="http://www.w3.org/1999/xlink" x="0px" y="0px"
	 viewBox="0 0 520.4 135.2" style="enable-background:new 0 0 520.4 135.2;" xml:space="preserve">
<style type="text/css">
	.st0{fill:#FFFFFF;}
</style>
<g>
	<path class="st0" d="M0,0h26.4c22.7,0,35.6,7.4,35.6,27.6c0,19.3-12.9,28.8-35.6,28.8H4.9v44.8H0V0z M24.5,52.1
		c21.8,0,32.2-7.1,32.2-24.5c0-17.8-10.4-23.3-32.2-23.3H4.9v47.8H24.5z"/>
	<path class="st0" d="M83.4,27.9h4L88,41.7h0.3c4.9-8.9,12-15.6,20.9-15.6c2.5,0,4.6,0.3,7.1,1.5l-1.2,4.3c-2.5-0.9-3.7-1.2-6.4-1.2
		c-6.7,0-14.7,5.2-20.5,19.6v50.9h-4.6V27.9z"/>
	<path class="st0" d="M154.9,26.1c17.5,0,32.5,14.1,32.5,38.6c0,24.2-15,38.3-32.5,38.3c-17.5,0-32.5-14.1-32.5-38.3
		C122.4,40.2,137.4,26.1,154.9,26.1z M154.9,98.7c15.6,0,27.6-13.8,27.6-34s-12-34.3-27.6-34.3c-15.6,0-27.6,14.1-27.6,34.3
		S139.2,98.7,154.9,98.7z"/>
	<path class="st0" d="M206.1,130.6c9.2,0,15.6-8.9,19.6-20.9l2.1-6.7l-30.4-75.1h5.2l18.7,48.1c2.5,6.1,5.5,14.1,8.3,20.5h0.6
		c2.5-6.4,4.9-14.4,7.1-20.5l16.6-48.1h4.9l-29.4,83.7c-3.7,11.3-11,23.6-23.6,23.6c-2.5,0-5.2-0.6-7.1-1.5l1.2-4.3
		C201.5,130,203.9,130.6,206.1,130.6z"/>
	<path class="st0" d="M300.5,26.1c16.9,0,27.6,12,27.6,33.7c0,1.5,0,3.1-0.3,4.9h-54c0,19.6,11.3,34,28.8,34
		c8.3,0,14.7-2.8,20.2-6.7l2.1,4c-5.5,3.4-11.7,7.1-22.7,7.1C284,103,269,88.6,269,64.7C269,40.8,284.3,26.1,300.5,26.1z
		 M323.5,60.7c0-20.2-9.2-30.4-23-30.4c-13.2,0-25.1,11.7-26.7,30.4H323.5z"/>
	<path class="st0" d="M375.1,26.1c10.1,0,16.6,4.6,21.5,9.2l-3.1,3.4c-4.9-4.6-10.7-8.3-18.4-8.3c-15.6,0-27.9,14.1-27.9,34.3
		s11,34,27.9,34c8.3,0,15.3-4,20.5-8.9l2.8,3.4c-6.1,5.5-13.8,9.8-23.3,9.8c-18.7,0-32.8-14.1-32.8-38.3
		C342.2,40.2,357.6,26.1,375.1,26.1z"/>
	<path class="st0" d="M418.6,32.2H407v-3.7l11.7-0.6l0.6-21.5h4v21.5H445v4.3h-21.8v50.3c0,9.5,2.1,16.3,12.9,16.3
		c2.8,0,6.7-1.2,9.5-2.5l1.5,4c-4.3,1.5-8.9,2.8-11.3,2.8c-13.5,0-17.2-8.6-17.2-21.2V32.2z"/>
	<path class="st0" d="M487.9,26.1c17.5,0,32.5,14.1,32.5,38.6c0,24.2-15,38.3-32.5,38.3s-32.5-14.1-32.5-38.3
		C455.4,40.2,470.4,26.1,487.9,26.1z M487.9,98.7c15.6,0,27.6-13.8,27.6-34s-12-34.3-27.6-34.3c-15.6,0-27.6,14.1-27.6,34.3
		S472.3,98.7,487.9,98.7z"/>
</g>
</svg>
